<?xml version="1.0" encoding="UTF-8" standalone="no"?>
<svg
   version="1.1"
   width="886.4386"
   height="336"
   id="svg296"
   sodipodi:docname="logo.svg"
   inkscape:version="1.4.2 (ebf0e940, 2025-05-08)"
   xmlns:inkscape="http://www.inkscape.org/namespaces/inkscape"
   xmlns:sodipodi="http://sodipodi.sourceforge.net/DTD/sodipodi-0.dtd"
   xmlns="http://www.w3.org/2000/svg"
   xmlns:svg="http://www.w3.org/2000/svg">
  <defs
     id="defs296">
    <rect
       x="348.83377"
       y="68.334976"
       width="516.74255"
       height="132.11429"
       id="rect296" />
  </defs>
  <sodipodi:namedview
     id="namedview296"
     pagecolor="#ffffff"
     bordercolor="#666666"
     borderopacity="1.0"
     inkscape:showpageshadow="2"
     inkscape:pageopacity="0.0"
     inkscape:pagecheckerboard="0"
     inkscape:deskcolor="#d1d1d1"
     inkscape:zoom="1.2661137"
     inkscape:cx="295.39211"
     inkscape:cy="172.57534"
     inkscape:window-width="1680"
     inkscape:window-height="996"
     inkscape:window-x="0"
     inkscape:window-y="25"
     inkscape:window-maximized="0"
     inkscape:current-layer="svg296" />
  <text
     xml:space="preserve"
     id="text296"
     style="font-style:normal;font-variant:normal;font-weight:normal;font-stretch:normal;font-size:23.2151px;line-height:1.25;font-family:'Exo 2';-inkscape-font-specification:'Exo 2, @wght=700';font-variant-ligatures:none;font-variant-caps:normal;font-variant-numeric:normal;font-variant-east-asian:normal;font-variation-settings:'wght' 700;white-space:pre;shape-inside:url(#rect296);display:inline;fill:#049dd9;fill-opacity:1"
     transform="matrix(5.6508299,0,0,5.6508299,-1614.3347,-341.74009)"
     inkscape:label="text-centum"><tspan
       x="348.83398"
       y="90.564395"
       id="tspan1">CENTUM</tspan></text>
  <text
     xml:space="preserve"
     style="font-style:normal;font-variant:normal;font-weight:normal;font-stretch:normal;font-size:62.1398px;line-height:1.25;font-family:'Exo 2';-inkscape-font-specification:'Exo 2, @wght=700';font-variant-ligatures:none;font-variant-caps:normal;font-variant-numeric:normal;font-variant-east-asian:normal;font-variation-settings:'wght' 700;fill:#049dd9;fill-opacity:1;stroke-width:0.604592"
     x="363.62372"
     y="257.25989"
     id="text297"
     inkscape:label="text-php-framework"><tspan
       sodipodi:role="line"
       id="tspan297"
       x="363.62372"
       y="257.25989"
       style="font-style:normal;font-variant:normal;font-weight:normal;font-stretch:normal;font-size:62.14px;font-family:'Exo 2';-inkscape-font-specification:'Exo 2, @wght=700';font-variant-ligatures:none;font-variant-caps:normal;font-variant-numeric:normal;font-variant-east-asian:normal;font-variation-settings:'wght' 700;fill:#049dd9;fill-opacity:1;stroke-width:0.604592">PHP FRAMEWORK</tspan></text>
  <rect
     style="font-variation-settings:'wght' 700;fill:#049dd9;fill-opacity:1;stroke-width:19.7272;stroke-linejoin:round"
     id="rect2"
     width="64.858002"
     height="143.87556"
     x="70.4543"
     y="113.00254"
     ry="5.8131075"
     inkscape:label="building1" />
  <path
     id="path1-3"
     style="fill:#43b6e3;fill-opacity:1;stroke:none;stroke-width:1.01427;stroke-opacity:1"
     d="m 202.82747,244.11615 h 65 V 76.116154 c 0,-3 0,-3 -4,0 -18,15 -57,50.999996 -61,82.999996 z"
     sodipodi:nodetypes="cccccc"
     inkscape:label="building4" />
  <path
     style="fill:#049dd9;fill-opacity:1;stroke:#049dd9;stroke-width:20;stroke-linecap:round;stroke-linejoin:round;stroke-dasharray:none;stroke-opacity:1"
     d="M 180.21682,268.90715 V 158.60441 l 37.19123,13.68665 v 74.61609 l -17.57607,10 z"
     id="path5-4"
     sodipodi:nodetypes="cccccc"
     inkscape:label="building3" />
  <path
     style="fill:#43b6e3;fill-opacity:1;stroke:#0376a3;stroke-width:17.684;stroke-linecap:round;stroke-linejoin:round;stroke-dasharray:none;stroke-opacity:1"
     d="M 136.74558,257.83849 V 48.790296 l 43.50149,27.727435 V 267.6569 l -18.29004,3.73059 z"
     id="path5"
     sodipodi:nodetypes="cccccc"
     inkscape:label="building2" />
  <path
     id="rect6-7-5"
     style="font-variation-settings:'wght' 700;fill:#43b6e3;stroke-width:4.35748;stroke-linecap:round;stroke-linejoin:round"
     d="m 207.90555,246.93796 h 59.83166 c 1.04381,0 1.88411,0.89464 1.88411,2.00593 V 286.272 c 0,1.11129 -0.8403,2.00593 -1.88411,2.00593 h -59.83166 c -1.04379,0 -1.88412,-0.89464 -1.88412,-2.00593 v -37.32811 c 0,-1.11129 0.84033,-2.00593 1.88412,-2.00593 z M 9.5840771,264.07001 H 321.41095 c 1.04379,0 1.88411,0.89464 1.88411,2.00593 v 37.32811 c 0,1.11129 -0.84032,2.00593 -1.88411,2.00593 H 9.5840771 c -1.0437986,0 -1.8841131,-0.89464 -1.8841131,-2.00593 v -37.32811 c 0,-1.11129 0.8403145,-2.00593 1.8841131,-2.00593 z m 60.8965389,-12.4447 h 59.831664 c 1.04379,0 1.88411,0.89464 1.88411,2.00593 v 37.32811 c 0,1.11128 -0.84032,2.00593 -1.88411,2.00593 H 70.480616 c -1.043799,0 -1.884114,-0.89465 -1.884114,-2.00593 v -37.32811 c 0,-1.11129 0.840315,-2.00593 1.884114,-2.00593 z"
     inkscape:label="waves-bg" />
  <path
     id="path2-4"
     style="baseline-shift:baseline;display:inline;overflow:visible;opacity:1;vector-effect:none;fill:#049dd9;stroke-linejoin:round;enable-background:accumulate;stop-color:#000000;stop-opacity:1;fill-opacity:1"
     d="m 97.980469,231.43359 c -15.801333,0 -28.631558,7.51504 -39.988281,13.78516 -11.356722,6.27012 -21.240476,11.29492 -30.322266,11.29492 -6.430366,0 -17.051354,-2.83541 -27.669922,-6.64258 v 21.22071 c 2.0611376,0.66573 4.089364,4.87898 3.3203125,6.52343 C 12.686202,280.77275 21.680382,283 27.380859,283 c 9.08179,0 18.963591,-5.0248 30.320313,-11.29492 11.356722,-6.27012 24.186949,-13.78516 39.988281,-13.78516 15.801337,0 28.631557,7.51504 39.988277,13.78516 C 149.03445,277.9752 158.91821,283 168,283 c 9.08179,0 18.96555,-5.0248 30.32227,-11.29492 11.35672,-6.27012 24.18695,-13.78516 39.98828,-13.78516 15.80133,0 28.63156,7.51504 39.98828,13.78516 C 289.65555,277.9752 299.53735,283 308.61914,283 c 5.70048,0 14.69466,-2.22725 24.06055,-5.38477 -0.9819,-2.09957 1.11247,-6.98313 3.32031,-7.53515 v -20.00196 c -10.42392,3.70247 -20.77658,6.43555 -27.08984,6.43555 -9.08179,0 -18.96555,-5.0248 -30.32227,-11.29492 -11.35672,-6.27012 -24.18695,-13.78516 -39.98828,-13.78516 -15.80133,0 -28.63156,7.51504 -39.98828,13.78516 -11.35672,6.27012 -21.24048,11.29492 -30.32227,11.29492 -9.08179,0 -18.96359,-5.0248 -30.32031,-11.29492 -11.35672,-6.27012 -24.18695,-13.78516 -39.988281,-13.78516 z m -0.291016,46.48633 c -9.08179,0 -18.96359,5.0248 -30.320312,11.29492 C 56.012419,295.48496 43.182192,303 27.380859,303 18.704349,303 9.4517678,300.92366 0.39648438,297.97852 2.9529173,315.02831 17.590547,328.01953 35.375,328.01953 h 265.25 c 17.78445,0 32.42208,-12.99122 34.97852,-30.04101 C 326.54823,300.92366 317.29566,303 308.61914,303 c -15.80133,0 -28.63156,-7.51504 -39.98828,-13.78516 -11.35672,-6.27012 -21.23852,-11.29492 -30.32031,-11.29492 -9.08179,0 -18.96555,5.0248 -30.32227,11.29492 C 196.63156,295.48496 183.80133,303 168,303 152.19867,303 139.36844,295.48496 128.01172,289.21484 116.655,282.94472 106.77124,277.91992 97.689453,277.91992 Z"
     sodipodi:nodetypes="ssscccssssssssscccsssssssssscsscsssssss"
     inkscape:label="waves" />
  <rect
     style="font-variation-settings:'wght' 700;fill:none;fill-opacity:1;stroke:#049dd9;stroke-width:17.684;stroke-linejoin:round;stroke-dasharray:none;stroke-opacity:1"
     id="rect1"
     width="318.3158"
     height="318.31577"
     x="8.8421001"
     y="8.8420801"
     ry="31.831581"
     inkscape:label="border" />
</svg>
