<?xml version="1.0" encoding="UTF-8" standalone="no"?>
<svg
   version="1.1"
   width="886.4386"
   height="336"
   id="svg296"
   sodipodi:docname="logo.svg"
   inkscape:version="1.4.2 (ebf0e940, 2025-05-08)"
   xmlns:inkscape="http://www.inkscape.org/namespaces/inkscape"
   xmlns:sodipodi="http://sodipodi.sourceforge.net/DTD/sodipodi-0.dtd"
   xmlns="http://www.w3.org/2000/svg"
   xmlns:svg="http://www.w3.org/2000/svg">
  <defs
     id="defs296">
    <rect
       x="348.83377"
       y="68.334976"
       width="516.74255"
       height="132.11429"
       id="rect296" />
  </defs>
  <sodipodi:namedview
     id="namedview296"
     pagecolor="#ffffff"
     bordercolor="#666666"
     borderopacity="1.0"
     inkscape:showpageshadow="2"
     inkscape:pageopacity="0.0"
     inkscape:pagecheckerboard="0"
     inkscape:deskcolor="#d1d1d1"
     inkscape:zoom="1.2661137"
     inkscape:cx="483.36891"
     inkscape:cy="189.95134"
     inkscape:window-width="1680"
     inkscape:window-height="996"
     inkscape:window-x="0"
     inkscape:window-y="25"
     inkscape:window-maximized="0"
     inkscape:current-layer="svg296" />
  <path
     d="m 356.7039,74.267395 q 1.13754,0 1.92686,0.06965 0.81252,0.04643 1.48576,0.162505 0.67324,0.116076 1.39291,0.325012 l -0.27858,2.600091 q -0.7661,-0.04643 -1.41612,-0.06965 -0.62681,-0.02322 -1.36969,-0.02322 -0.71967,-0.02322 -1.74114,-0.02322 -1.18397,0 -1.8572,0.464302 -0.65003,0.464302 -0.92861,1.625057 -0.27858,1.13754 -0.27858,3.157254 0,2.019713 0.27858,3.180468 0.27858,1.13754 0.92861,1.601842 0.67323,0.464302 1.8572,0.464302 1.60184,0 2.69295,-0.04643 1.09111,-0.04643 2.15901,-0.162506 l 0.3018,2.600092 q -1.11433,0.348226 -2.27508,0.487517 -1.16076,0.162505 -2.87868,0.162505 -2.48401,0 -3.99299,-0.789313 -1.48577,-0.812529 -2.15901,-2.623306 -0.65002,-1.810778 -0.65002,-4.875171 0,-3.064393 0.65002,-4.875171 0.67324,-1.810778 2.15901,-2.600091 1.50898,-0.812529 3.99299,-0.812529 z m 10.67893,0.208936 q 1.30005,0 2.62331,0.02321 1.32326,0 2.60009,0.04643 1.27683,0.04643 2.39116,0.162505 l -0.16251,2.576876 h -6.152 q -0.58038,0 -0.88217,0.301797 -0.27859,0.301796 -0.27859,0.882173 v 8.171715 q 0,0.580378 0.27859,0.882174 0.30179,0.301796 0.88217,0.301796 h 6.152 l 0.16251,2.576876 q -1.11433,0.09286 -2.39116,0.162506 -1.27683,0.04643 -2.60009,0.04643 -1.32326,0.02321 -2.62331,0.02321 -1.53219,0 -2.48401,-0.882173 -0.92861,-0.905389 -0.92861,-2.344725 V 77.70323 q 0,-1.462551 0.92861,-2.344725 0.95182,-0.882174 2.48401,-0.882174 z m -2.99474,6.500228 h 9.58783 v 2.507231 h -9.58783 z m 26.67413,-6.430582 v 14.741588 q 0,1.27683 -1.27683,1.27683 h -1.95007 q -0.58038,0 -0.88218,-0.255366 -0.30179,-0.278581 -0.55716,-0.812528 l -4.43408,-8.403866 q -0.27858,-0.533948 -0.55717,-1.18397 -0.25536,-0.650023 -0.44108,-1.253616 h -0.25537 q 0.0697,0.626808 0.11608,1.276831 0.0464,0.626807 0.0464,1.253615 v 9.3789 H 377.5046 V 75.822807 q 0,-1.27683 1.30004,-1.27683 h 1.92686 q 0.55716,0 0.83574,0.278581 0.3018,0.255366 0.58038,0.789313 l 4.29479,8.1485 q 0.27858,0.533947 0.58038,1.18397 0.30179,0.650023 0.58038,1.346476 h 0.27858 q -0.0697,-0.696453 -0.11608,-1.346476 -0.0232,-0.673238 -0.0232,-1.323261 l -0.0232,-9.077103 z m 10.35393,0 v 16.018418 h -3.55191 V 74.545977 Z m 4.82874,0 v 2.785811 h -13.18617 v -2.785811 z m 14.81122,0 v 9.634266 q 0,2.437585 -0.60359,3.923352 -0.60359,1.462551 -1.9965,2.135789 -1.36969,0.650023 -3.66799,0.650023 -2.43758,0 -3.90013,-0.650023 -1.46255,-0.673238 -2.11258,-2.135789 -0.65002,-1.485767 -0.65002,-3.923352 v -9.634266 h 3.55191 v 9.634266 q 0,1.508981 0.25537,2.36794 0.27858,0.835744 0.9286,1.18397 0.65002,0.348226 1.74113,0.348226 1.09111,0 1.71792,-0.348226 0.65002,-0.348226 0.90539,-1.18397 0.27858,-0.858959 0.27858,-2.36794 v -9.634266 z m 19.52392,0 q 1.25361,0 1.30004,1.300045 l 0.60359,14.718373 h -3.27332 l -0.53395,-13.279037 h -0.41787 l -2.57688,9.982493 q -0.20894,1.114325 -1.39291,1.114325 h -2.22865 q -1.18397,0 -1.43933,-1.114325 l -2.57688,-9.982493 h -0.39465 l -0.48752,13.279037 h -3.29655 l 0.6036,-14.718373 q 0.0464,-1.300045 1.32326,-1.300045 h 3.31976 q 1.13754,0 1.3929,1.137539 l 2.06615,8.05564 q 0.13929,0.557162 0.23215,1.13754 0.0929,0.557162 0.20893,1.13754 h 0.3018 q 0.11608,-0.580378 0.20894,-1.13754 0.11607,-0.580378 0.23215,-1.160755 l 2.04293,-8.032425 q 0.23215,-1.137539 1.3929,-1.137539 z"
     id="text296"
     style="font-size:23.2151px;line-height:1.25;font-family:'Exo 2';-inkscape-font-specification:'Exo 2, @wght=700';font-variant-ligatures:none;font-variation-settings:'wght' 700;white-space:pre;fill:#049dd9"
     inkscape:label="text-centum"
     transform="matrix(5.6508299,0,0,5.6508299,-1614.3347,-341.74009)"
     aria-label="CENTUM" />
  <path
     style="font-size:62.14px;line-height:1.25;font-family:'Exo 2';-inkscape-font-specification:'Exo 2, @wght=700';font-variant-ligatures:none;font-variation-settings:'wght' 700;fill:#049dd9;stroke-width:0.604592"
     d="m 384.37848,213.76189 q 6.02758,0 9.44528,1.2428 3.4177,1.2428 4.84692,4.28766 1.49136,3.04486 1.49136,8.51318 0,5.46832 -1.42922,8.51318 -1.36708,3.04486 -4.53622,4.28766 -3.16914,1.18066 -8.57532,1.18066 -2.85844,0 -5.5926,-0.24856 -2.73416,-0.24856 -5.09548,-0.6214 -2.36132,-0.37284 -4.0391,-0.74568 -1.67778,-0.43498 -2.29918,-0.80782 l 0.18642,-4.72264 q 3.66626,0 7.58108,0 3.97696,0 7.82964,0 2.4856,-0.0621 3.85268,-0.6214 1.42922,-0.55926 1.98848,-2.05062 0.6214,-1.49136 0.6214,-4.16338 0,-2.73416 -0.6214,-4.22552 -0.55926,-1.49136 -1.98848,-2.05062 -1.36708,-0.6214 -3.85268,-0.6214 -5.71688,0 -9.81812,0.0621 -4.10124,0.0621 -5.53046,0.24856 l -0.9321,-6.8354 q 2.60988,-0.3107 4.90906,-0.43498 2.29918,-0.12428 4.9712,-0.12428 2.73416,-0.0621 6.58684,-0.0621 z m -6.95968,0.6214 v 42.8766 h -9.50742 v -42.8766 z m 38.46466,0 v 42.8766 h -9.50742 v -42.8766 z m 15.90784,16.4671 v 7.1461 h -16.40496 v -7.1461 z m 8.82388,-16.4671 v 42.8766 h -9.50742 v -42.8766 z m 25.10456,-0.6214 q 6.02758,0 9.44528,1.2428 3.4177,1.2428 4.84692,4.28766 1.49136,3.04486 1.49136,8.51318 0,5.46832 -1.42922,8.51318 -1.36708,3.04486 -4.53622,4.28766 -3.16914,1.18066 -8.57532,1.18066 -2.85844,0 -5.5926,-0.24856 -2.73416,-0.24856 -5.09548,-0.6214 -2.36132,-0.37284 -4.0391,-0.74568 -1.67778,-0.43498 -2.29918,-0.80782 l 0.18642,-4.72264 q 3.66626,0 7.58108,0 3.97696,0 7.82964,0 2.4856,-0.0621 3.85268,-0.6214 1.42922,-0.55926 1.98848,-2.05062 0.6214,-1.49136 0.6214,-4.16338 0,-2.73416 -0.6214,-4.22552 -0.55926,-1.49136 -1.98848,-2.05062 -1.36708,-0.6214 -3.85268,-0.6214 -5.71688,0 -9.81812,0.0621 -4.10124,0.0621 -5.53046,0.24856 l -0.9321,-6.8354 q 2.60988,-0.3107 4.90906,-0.43498 2.29918,-0.12428 4.9712,-0.12428 2.73416,-0.0621 6.58684,-0.0621 z m -6.95968,0.6214 v 42.8766 h -9.50742 v -42.8766 z m 50.39562,-0.18642 q 3.29342,0 6.71112,0.0621 3.47984,0 6.77326,0.18642 3.35556,0.12428 6.214,0.43498 l -0.49712,6.8354 h -15.535 q -1.67778,0 -2.54774,0.80782 -0.86996,0.80782 -0.86996,2.36132 v 32.37494 h -9.50742 v -34.30128 q 0,-3.97696 2.54774,-6.33828 2.54774,-2.42346 6.71112,-2.42346 z m -8.14034,18.14488 h 25.04242 v 6.71112 h -25.04242 z m 50.14693,-18.57986 q 5.65474,0 9.13458,1.18066 3.54198,1.11852 5.15762,3.91482 1.67778,2.73416 1.67778,7.64322 0,2.98272 -0.80782,5.2819 -0.74568,2.23704 -2.54774,3.60412 -1.80206,1.36708 -4.90906,1.73992 v 0.3107 q 1.11852,0.18642 2.29918,0.86996 1.2428,0.68354 2.29918,2.05062 1.05638,1.30494 1.5535,3.54198 l 3.7284,13.3601 h -10.00454 l -3.29342,-13.0494 q -0.55926,-2.11276 -1.67778,-2.92058 -1.05638,-0.80782 -2.98272,-0.80782 -4.22552,0 -7.1461,0 -2.85844,-0.0621 -4.84692,-0.12428 -1.92634,-0.0621 -3.47984,-0.12428 l 0.18642,-6.89754 h 15.47286 q 2.4856,0 3.91482,-0.49712 1.49136,-0.55926 2.05062,-1.92634 0.6214,-1.36708 0.6214,-3.79054 0,-2.4856 -0.6214,-3.79054 -0.55926,-1.36708 -2.05062,-1.8642 -1.42922,-0.55926 -3.91482,-0.55926 -5.84116,0 -9.88026,0.0621 -4.0391,0.0621 -5.53046,0.18642 l -0.9321,-6.77326 q 2.60988,-0.3107 4.90906,-0.43498 2.29918,-0.12428 5.03334,-0.12428 2.73416,-0.0621 6.58684,-0.0621 z m -7.1461,0.6214 v 42.8766 h -9.38314 v -42.8766 z m 51.3276,0 q 1.18066,0 2.05062,0.68354 0.9321,0.68354 1.2428,1.80206 l 12.428,40.391 h -9.69384 l -8.76174,-31.50498 q -0.24856,-1.05638 -0.49712,-2.11276 -0.24856,-1.11852 -0.43498,-2.11276 h -1.67778 q -0.18642,0.99424 -0.43498,2.11276 -0.18642,1.05638 -0.49712,2.11276 l -8.76174,31.50498 h -9.75598 l 12.49014,-40.391 q 0.3107,-1.11852 1.18066,-1.80206 0.9321,-0.68354 2.11276,-0.68354 z m 6.58684,24.42102 v 7.1461 h -22.24612 v -7.1461 z m 57.41735,-24.42102 q 3.35556,0 3.47984,3.47984 l 1.61564,39.39676 h -8.76174 l -1.42922,-35.54408 h -1.11852 l -6.89754,26.7202 q -0.55926,2.98272 -3.7284,2.98272 h -5.96544 q -3.16914,0 -3.85268,-2.98272 l -6.89754,-26.7202 h -1.05638 l -1.30494,35.54408 h -8.82388 l 1.61564,-39.39676 q 0.12428,-3.47984 3.54198,-3.47984 h 8.88602 q 3.04486,0 3.7284,3.04486 l 5.53046,21.56258 q 0.37284,1.49136 0.6214,3.04486 0.24856,1.49136 0.55926,3.04486 h 0.80782 q 0.3107,-1.5535 0.55926,-3.04486 0.3107,-1.5535 0.6214,-3.107 l 5.46832,-21.50044 q 0.6214,-3.04486 3.7284,-3.04486 z m 21.74905,-0.18642 q 3.47984,0 7.02182,0.0621 3.54198,0 6.95968,0.12428 3.4177,0.12428 6.40042,0.43498 l -0.43498,6.89754 h -16.4671 q -1.5535,0 -2.36132,0.80782 -0.74568,0.80782 -0.74568,2.36132 v 21.87328 q 0,1.5535 0.74568,2.36132 0.80782,0.80782 2.36132,0.80782 h 16.4671 l 0.43498,6.89754 q -2.98272,0.24856 -6.40042,0.43498 -3.4177,0.12428 -6.95968,0.12428 -3.54198,0.0621 -7.02182,0.0621 -4.10124,0 -6.64898,-2.36132 -2.4856,-2.42346 -2.4856,-6.27614 v -25.97452 q 0,-3.91482 2.4856,-6.27614 2.54774,-2.36132 6.64898,-2.36132 z m -8.01606,17.3992 h 25.66382 v 6.71112 h -25.66382 z m 89.85439,-17.21278 -7.02182,40.26672 q -0.18642,1.11852 -1.11852,1.8642 -0.9321,0.74568 -2.23704,0.74568 h -8.88602 q -1.2428,0 -2.23704,-0.74568 -0.9321,-0.74568 -1.11852,-1.92634 l -4.78478,-27.90086 q -0.18642,-1.42922 -0.37284,-2.7963 -0.18642,-1.42922 -0.37284,-2.7963 h -1.18066 q -0.12428,1.36708 -0.3107,2.7963 -0.18642,1.42922 -0.37284,2.7963 l -4.78478,27.90086 q -0.18642,1.18066 -1.18066,1.92634 -0.9321,0.74568 -2.1749,0.74568 h -8.94816 q -1.2428,0 -2.23704,-0.74568 -0.9321,-0.74568 -1.11852,-1.8642 l -7.02182,-40.26672 h 9.56956 l 4.47408,29.8272 q 0.18642,1.36708 0.3107,2.92058 0.12428,1.5535 0.24856,3.29342 h 1.18066 q 0.24856,-1.49136 0.49712,-3.107 0.3107,-1.67778 0.49712,-3.107 l 4.72264,-26.90662 q 0.18642,-1.30494 1.11852,-2.11276 0.9321,-0.80782 2.23704,-0.80782 h 7.82964 q 1.30494,0 2.1749,0.80782 0.9321,0.80782 1.11852,2.11276 l 4.78478,26.96876 q 0.24856,1.49136 0.49712,3.107 0.24856,1.5535 0.43498,3.04486 h 1.2428 q 0.12428,-1.49136 0.24856,-3.107 0.18642,-1.61564 0.3107,-2.98272 l 4.41194,-29.95148 z m 22.83642,-0.86996 q 5.09548,0 8.63746,1.11852 3.54198,1.05638 5.65474,3.60412 2.1749,2.4856 3.16914,6.8354 0.99424,4.28766 0.99424,10.75022 0,6.46256 -0.99424,10.81236 -0.99424,4.28766 -3.16914,6.8354 -2.11276,2.4856 -5.65474,3.60412 -3.54198,1.05638 -8.63746,1.05638 -5.09548,0 -8.63746,-1.05638 -3.54198,-1.11852 -5.71688,-3.60412 -2.1749,-2.54774 -3.16914,-6.8354 -0.99424,-4.3498 -0.99424,-10.81236 0,-6.46256 0.99424,-10.75022 0.99424,-4.3498 3.16914,-6.8354 2.1749,-2.54774 5.71688,-3.60412 3.54198,-1.11852 8.63746,-1.11852 z m 0,7.51894 q -3.29342,0 -5.15762,1.30494 -1.80206,1.30494 -2.60988,4.53622 -0.74568,3.16914 -0.74568,8.94816 0,5.71688 0.74568,8.94816 0.80782,3.23128 2.60988,4.53622 1.8642,1.30494 5.15762,1.30494 3.23128,0 5.03334,-1.30494 1.8642,-1.30494 2.60988,-4.53622 0.80782,-3.23128 0.80782,-8.94816 0,-5.77902 -0.80782,-8.94816 -0.74568,-3.23128 -2.60988,-4.53622 -1.80206,-1.30494 -5.03334,-1.30494 z m 42.19303,-7.27038 q 5.65474,0 9.13458,1.18066 3.54198,1.11852 5.15762,3.91482 1.67778,2.73416 1.67778,7.64322 0,2.98272 -0.80782,5.2819 -0.74568,2.23704 -2.54774,3.60412 -1.80206,1.36708 -4.90906,1.73992 v 0.3107 q 1.11852,0.18642 2.29918,0.86996 1.2428,0.68354 2.29918,2.05062 1.05638,1.30494 1.5535,3.54198 l 3.7284,13.3601 h -10.00454 l -3.29342,-13.0494 q -0.55926,-2.11276 -1.67778,-2.92058 -1.05638,-0.80782 -2.98272,-0.80782 -4.22552,0 -7.1461,0 -2.85844,-0.0621 -4.84692,-0.12428 -1.92634,-0.0621 -3.47984,-0.12428 l 0.18642,-6.89754 h 15.47286 q 2.4856,0 3.91482,-0.49712 1.49136,-0.55926 2.05062,-1.92634 0.6214,-1.36708 0.6214,-3.79054 0,-2.4856 -0.6214,-3.79054 -0.55926,-1.36708 -2.05062,-1.8642 -1.42922,-0.55926 -3.91482,-0.55926 -5.84116,0 -9.88026,0.0621 -4.0391,0.0621 -5.53046,0.18642 l -0.9321,-6.77326 q 2.60988,-0.3107 4.90906,-0.43498 2.29918,-0.12428 5.03334,-0.12428 2.73416,-0.0621 6.58684,-0.0621 z m -7.1461,0.6214 v 42.8766 h -9.38314 v -42.8766 z m 64.87414,0 -11.1852,17.27492 q -0.68354,1.11852 -1.49136,1.92634 -0.80782,0.80782 -1.61564,1.36708 v 0.18642 q 0.86996,0.49712 1.8642,1.49136 0.99424,0.99424 1.61564,2.11276 l 11.55804,18.51772 h -10.62594 l -13.23582,-22.43254 12.86298,-20.44406 z m -24.5453,0 v 12.1173 q 0,2.11276 -0.3107,4.22552 -0.3107,2.05062 -0.99424,4.0391 0.49712,1.92634 0.86996,3.97696 0.43498,1.98848 0.43498,3.7284 v 14.78932 h -9.44528 v -42.8766 z m 4.84692,17.27492 v 6.58684 h -7.70536 v -6.58684 z"
     id="text297"
     inkscape:label="text-php-framework"
     aria-label="PHP FRAMEWORK" />
  <rect
     style="font-variation-settings:'wght' 700;fill:#049dd9;fill-opacity:1;stroke-width:19.7272;stroke-linejoin:round"
     id="rect2"
     width="64.858002"
     height="143.87556"
     x="70.4543"
     y="113.00254"
     ry="5.8131075"
     inkscape:label="building1" />
  <path
     id="path1-3"
     style="fill:#43b6e3;fill-opacity:1;stroke:none;stroke-width:1.01427;stroke-opacity:1"
     d="m 202.82747,244.11615 h 65 V 76.116154 c 0,-3 0,-3 -4,0 -18,15 -57,50.999996 -61,82.999996 z"
     sodipodi:nodetypes="cccccc"
     inkscape:label="building4" />
  <path
     style="fill:#049dd9;fill-opacity:1;stroke:#049dd9;stroke-width:20;stroke-linecap:round;stroke-linejoin:round;stroke-dasharray:none;stroke-opacity:1"
     d="M 180.21682,268.90715 V 158.60441 l 37.19123,13.68665 v 74.61609 l -17.57607,10 z"
     id="path5-4"
     sodipodi:nodetypes="cccccc"
     inkscape:label="building3" />
  <path
     style="fill:#43b6e3;fill-opacity:1;stroke:#0376a3;stroke-width:17.684;stroke-linecap:round;stroke-linejoin:round;stroke-dasharray:none;stroke-opacity:1"
     d="M 136.74558,257.83849 V 48.790296 l 43.50149,27.727435 V 267.6569 l -18.29004,3.73059 z"
     id="path5"
     sodipodi:nodetypes="cccccc"
     inkscape:label="building2" />
  <path
     id="rect6-7-5"
     style="font-variation-settings:'wght' 700;fill:#43b6e3;stroke-width:4.35748;stroke-linecap:round;stroke-linejoin:round"
     d="m 207.90555,246.93796 h 59.83166 c 1.04381,0 1.88411,0.89464 1.88411,2.00593 V 286.272 c 0,1.11129 -0.8403,2.00593 -1.88411,2.00593 h -59.83166 c -1.04379,0 -1.88412,-0.89464 -1.88412,-2.00593 v -37.32811 c 0,-1.11129 0.84033,-2.00593 1.88412,-2.00593 z M 9.5840771,264.07001 H 321.41095 c 1.04379,0 1.88411,0.89464 1.88411,2.00593 v 37.32811 c 0,1.11129 -0.84032,2.00593 -1.88411,2.00593 H 9.5840771 c -1.0437986,0 -1.8841131,-0.89464 -1.8841131,-2.00593 v -37.32811 c 0,-1.11129 0.8403145,-2.00593 1.8841131,-2.00593 z m 60.8965389,-12.4447 h 59.831664 c 1.04379,0 1.88411,0.89464 1.88411,2.00593 v 37.32811 c 0,1.11128 -0.84032,2.00593 -1.88411,2.00593 H 70.480616 c -1.043799,0 -1.884114,-0.89465 -1.884114,-2.00593 v -37.32811 c 0,-1.11129 0.840315,-2.00593 1.884114,-2.00593 z"
     inkscape:label="waves-bg" />
  <path
     id="path2-4"
     style="baseline-shift:baseline;display:inline;overflow:visible;opacity:1;vector-effect:none;fill:#049dd9;stroke-linejoin:round;enable-background:accumulate;stop-color:#000000;stop-opacity:1;fill-opacity:1"
     d="m 97.980469,231.43359 c -15.801333,0 -28.631558,7.51504 -39.988281,13.78516 -11.356722,6.27012 -21.240476,11.29492 -30.322266,11.29492 -6.430366,0 -17.051354,-2.83541 -27.669922,-6.64258 v 21.22071 c 2.0611376,0.66573 4.089364,4.87898 3.3203125,6.52343 C 12.686202,280.77275 21.680382,283 27.380859,283 c 9.08179,0 18.963591,-5.0248 30.320313,-11.29492 11.356722,-6.27012 24.186949,-13.78516 39.988281,-13.78516 15.801337,0 28.631557,7.51504 39.988277,13.78516 C 149.03445,277.9752 158.91821,283 168,283 c 9.08179,0 18.96555,-5.0248 30.32227,-11.29492 11.35672,-6.27012 24.18695,-13.78516 39.98828,-13.78516 15.80133,0 28.63156,7.51504 39.98828,13.78516 C 289.65555,277.9752 299.53735,283 308.61914,283 c 5.70048,0 14.69466,-2.22725 24.06055,-5.38477 -0.9819,-2.09957 1.11247,-6.98313 3.32031,-7.53515 v -20.00196 c -10.42392,3.70247 -20.77658,6.43555 -27.08984,6.43555 -9.08179,0 -18.96555,-5.0248 -30.32227,-11.29492 -11.35672,-6.27012 -24.18695,-13.78516 -39.98828,-13.78516 -15.80133,0 -28.63156,7.51504 -39.98828,13.78516 -11.35672,6.27012 -21.24048,11.29492 -30.32227,11.29492 -9.08179,0 -18.96359,-5.0248 -30.32031,-11.29492 -11.35672,-6.27012 -24.18695,-13.78516 -39.988281,-13.78516 z m -0.291016,46.48633 c -9.08179,0 -18.96359,5.0248 -30.320312,11.29492 C 56.012419,295.48496 43.182192,303 27.380859,303 18.704349,303 9.4517678,300.92366 0.39648438,297.97852 2.9529173,315.02831 17.590547,328.01953 35.375,328.01953 h 265.25 c 17.78445,0 32.42208,-12.99122 34.97852,-30.04101 C 326.54823,300.92366 317.29566,303 308.61914,303 c -15.80133,0 -28.63156,-7.51504 -39.98828,-13.78516 -11.35672,-6.27012 -21.23852,-11.29492 -30.32031,-11.29492 -9.08179,0 -18.96555,5.0248 -30.32227,11.29492 C 196.63156,295.48496 183.80133,303 168,303 152.19867,303 139.36844,295.48496 128.01172,289.21484 116.655,282.94472 106.77124,277.91992 97.689453,277.91992 Z"
     sodipodi:nodetypes="ssscccssssssssscccsssssssssscsscsssssss"
     inkscape:label="waves" />
  <rect
     style="font-variation-settings:'wght' 700;fill:none;fill-opacity:1;stroke:#049dd9;stroke-width:17.684;stroke-linejoin:round;stroke-dasharray:none;stroke-opacity:1"
     id="rect1"
     width="318.3158"
     height="318.31577"
     x="8.8421001"
     y="8.8420801"
     ry="31.831581"
     inkscape:label="border" />
</svg>
